<svg xmlns="http://www.w3.org/2000/svg" id="Layer_1" data-name="Layer 1" width="96" height="96" viewBox="0 0 96 96"><defs><style>
      .cls-1 {
        fill: #1d1d1b;
      }

      .cls-2 {
        fill: #478ccb;
        fill-rule: evenodd;
      }
    </style></defs><g><path class="cls-1" d="M19,77.85a1.89,1.89,0,1,1-3.77.12,11.51,11.51,0,0,1,1.66-6.71,6.7,6.7,0,0,1,1.86-1.92,4.9,4.9,0,0,1,2.55-.84h0a5,5,0,0,1,3,.89,9.13,9.13,0,0,0,3.58,1.52,17.12,17.12,0,0,0,5-.12,1.87,1.87,0,0,1,1.47.44h0a20.55,20.55,0,0,0,4.88,3.06c5.68,2.55,12.88,3.09,19.85,1.63a32.91,32.91,0,0,0,18.3-10.37,26.26,26.26,0,0,0,4-6.25A32.14,32.14,0,0,0,83,37.12a28.72,28.72,0,0,0-5.11-9.95,21.73,21.73,0,0,0-8-6.31A17.46,17.46,0,0,0,57.62,20,11.92,11.92,0,0,0,50,26.52a1.88,1.88,0,0,1-1.87,1.08,13.47,13.47,0,0,1-7.45-2.46,13.84,13.84,0,0,1-4.82-6.42,1.89,1.89,0,0,1,3.53-1.34,10.2,10.2,0,0,0,3.49,4.7,9.45,9.45,0,0,0,4.32,1.66,15.62,15.62,0,0,1,3.46-4.17,15.92,15.92,0,0,1,5.92-3.15,21.19,21.19,0,0,1,14.89,1,25.66,25.66,0,0,1,9.35,7.4,32.59,32.59,0,0,1,5.78,11.26,35.82,35.82,0,0,1-1.8,24.77A29.79,29.79,0,0,1,80.24,68,36.62,36.62,0,0,1,59.85,79.6c-7.72,1.63-15.77,1-22.17-1.88a24.72,24.72,0,0,1-5.13-3.09,18.55,18.55,0,0,1-5.28,0,12.59,12.59,0,0,1-5-2.1,1.44,1.44,0,0,0-.77-.26h0a1.2,1.2,0,0,0-.61.22,2.82,2.82,0,0,0-.8.84,7.85,7.85,0,0,0-1,4.52Zm-7.15-.11a1.88,1.88,0,1,1-3.75.36,20.89,20.89,0,0,1,1.68-11,15.19,15.19,0,0,1,12.53-8.8A21.68,21.68,0,0,1,33,60.19a28.87,28.87,0,0,1,5.7-2.43,20,20,0,0,1,5.93-.69,15.9,15.9,0,0,1,2.18-2.91,15.46,15.46,0,0,1,2.76-2.31,19.51,19.51,0,0,1-.35-3.29,18.77,18.77,0,0,1,.31-3.62,14.93,14.93,0,0,1-2.36-3.14A16.54,16.54,0,0,1,45.57,38l-1.33-.42C37.1,35.35,30.88,33.38,26.73,22.2a1.88,1.88,0,0,1,3.53-1.32C33.77,30.33,39.17,32,45.38,34c.61.19,1.24.39,2.31.75A1.87,1.87,0,0,1,49,36.15a13.62,13.62,0,0,0,1.47,3.78,11.44,11.44,0,0,0,2.36,2.94h0a1.86,1.86,0,0,1,.6,1.78A17.86,17.86,0,0,0,53,48.5a19.55,19.55,0,0,0,.54,3.88h0a1.88,1.88,0,0,1-1,2.07,12,12,0,0,0-3,2.31,11.31,11.31,0,0,0-2,2.94,1.89,1.89,0,0,1-1.87,1.19,17.31,17.31,0,0,0-5.93.51,27.33,27.33,0,0,0-5.66,2.5,1.89,1.89,0,0,1-1.79.1,18.36,18.36,0,0,0-9.57-2,11.78,11.78,0,0,0-5.68,2,11.64,11.64,0,0,0-3.8,4.6,17.2,17.2,0,0,0-1.34,9Z"></path><path class="cls-2" d="M34.42,67.14C48.89,79.5,71.86,73,78.06,55.82c-4-1.13-18.43-2.13-21.05.71-1.28,1.39-2.82,2.18-3.94,3.28-3.12,3.08-2.12,6-7.84,5.43-5.86-.77-7,.83-10.81,1.9Z"></path></g></svg>