<svg xmlns="http://www.w3.org/2000/svg" id="Layer_1" data-name="Layer 1" width="96" height="96" viewBox="0 0 96 96"><defs><style>
      .cls-1 {
        fill: #478ccb;
      }

      .cls-2 {
        fill: #1d1d1b;
      }
    </style></defs><g><path class="cls-1" d="M48,27.92a25.37,25.37,0,0,1,13.29,3.74,14.14,14.14,0,0,1-1.89,3.69,21.34,21.34,0,0,0-22.94.09,14.11,14.11,0,0,1-1.92-3.67A25.31,25.31,0,0,1,48,27.92ZM73.46,52.67c0,.24,0,.48,0,.72A25.39,25.39,0,0,1,66,71.4a25.71,25.71,0,0,1-6,4.45,13.92,13.92,0,0,1-2.24-3.49,21.35,21.35,0,0,0,11.56-19c0-.31,0-.62,0-.93a14.08,14.08,0,0,1,4.14.21ZM35.84,75.77A25.47,25.47,0,0,1,22.53,53.39c0-.26,0-.51,0-.76a14.06,14.06,0,0,1,4.14-.14c0,.3,0,.6,0,.9a21.3,21.3,0,0,0,6.25,15.09,21.84,21.84,0,0,0,5.14,3.79,14.45,14.45,0,0,1-2.21,3.5Z"></path><path class="cls-2" d="M84.72,80.5A23.31,23.31,0,0,1,56,84.87h0a23.28,23.28,0,0,1-5.3-4.19A22.6,22.6,0,0,1,48,77.3a22.6,22.6,0,0,1-2.64,3.38,23.28,23.28,0,0,1-5.3,4.19l-.09,0A23.31,23.31,0,0,1,11.28,80.5a1.39,1.39,0,0,1,.08-2,1.79,1.79,0,0,1,.28-.2l.06,0a1.36,1.36,0,0,1,1.68.25,16.9,16.9,0,0,0,20.31,2.59h0a16.92,16.92,0,0,0,6.83-21.87l2.74-1.58a6.41,6.41,0,0,0,9.49,0l2.73,1.58a16.92,16.92,0,0,0,6.83,21.87l.07,0a16.9,16.9,0,0,0,20.27-2.66,1.37,1.37,0,0,1,1.65-.22h0l.1.06a1.37,1.37,0,0,1,.5,1.87,1.44,1.44,0,0,1-.18.25ZM39.14,56.91A16.9,16.9,0,0,0,8.9,70.82a1.38,1.38,0,0,1-.67,1.55l-.07,0a1.38,1.38,0,0,1-1.88-.5,1.69,1.69,0,0,1-.12-.28h0a23.29,23.29,0,0,1,10.6-27.11,23.15,23.15,0,0,1,10.52-3.1,22.88,22.88,0,0,1-1.6-4A23.31,23.31,0,0,1,42.88,8a1.37,1.37,0,0,1,1.64,1,1.53,1.53,0,0,1,0,.3h0v.11a1.37,1.37,0,0,1-1.13,1.35A16.9,16.9,0,0,0,46.63,44v3.16a6.43,6.43,0,0,0-5.05,6.28,6.51,6.51,0,0,0,.3,1.94l-2.74,1.58ZM49.37,44a16.9,16.9,0,0,0,3.09-33.14,1.37,1.37,0,0,1-1-1.32h0V9.38A1.38,1.38,0,0,1,52.82,8a1.52,1.52,0,0,1,.42.06A23.34,23.34,0,0,1,70.33,37.45a23.74,23.74,0,0,1-1.61,4,23.15,23.15,0,0,1,10.52,3.1,23.29,23.29,0,0,1,10.6,27.11,1.38,1.38,0,0,1-1.72.9,1.24,1.24,0,0,1-.33-.15l-.05,0a1.37,1.37,0,0,1-.63-1.56A16.92,16.92,0,0,0,79.31,52a1.13,1.13,0,0,1-.21-.12,16.88,16.88,0,0,0-22.24,5.09l-2.74-1.59a6.2,6.2,0,0,0,.3-1.94,6.43,6.43,0,0,0-5.05-6.28V44Z"></path></g></svg>