<svg xmlns="http://www.w3.org/2000/svg" id="Layer_1" data-name="Layer 1" width="96" height="96" viewBox="0 0 96 96"><defs><style>
      .cls-1 {
        fill: #11121a;
      }

      .cls-2 {
        fill: #478ccb;
      }
    </style></defs><g><path class="cls-1" d="M41.9,22.47l1.89-8.77a2.95,2.95,0,1,0-4-2.75,2.91,2.91,0,0,0,.77,2L38.66,21.7A17.3,17.3,0,0,0,29,23.1l-2.32-4.19a2.9,2.9,0,0,0,.34-1.37,2.95,2.95,0,1,0-3.28,2.93l2.39,4.31a17.46,17.46,0,0,0-4.83,5.29L17.23,27.7a2.95,2.95,0,1,0-2.94,3,2.72,2.72,0,0,0,1.07-.21l4.58,2.65a17.11,17.11,0,0,0-1,5.71A17.3,17.3,0,0,0,19.48,43l-7.58.62a2.94,2.94,0,1,0,.46,3.3l8.27-.68A17,17,0,0,0,23.09,50l-2.61,1.92a2.89,2.89,0,0,0-1.11-.22,3,3,0,1,0,2.95,3l3.19-2.35A17.25,17.25,0,0,0,31.4,55.4l-1,4.68a2.93,2.93,0,1,0,3.1,1.42L34.67,56c.52,0,1,.07,1.58.07a17.1,17.1,0,0,0,4.21-.52,25.45,25.45,0,0,1-1.69-8,26.94,26.94,0,0,1,0-2.84c0-.24,0-.47.07-.71a25.33,25.33,0,0,1,.59-3.5c.06-.25.12-.51.19-.77a26.09,26.09,0,0,1,.82-2.5,25.24,25.24,0,0,1,8-10.7A17.26,17.26,0,0,0,41.9,22.47Z"></path><path class="cls-2" d="M87.44,87.53a3.54,3.54,0,0,0,1.32-4.83l-6-10.48-1-1.73A3.5,3.5,0,0,0,80.18,69a3.54,3.54,0,0,0-4.53,5l1,1.73,6,10.48A3.55,3.55,0,0,0,87.44,87.53Z"></path><path class="cls-1" d="M81.11,44.33a3.73,3.73,0,0,0-.38-.28,3.57,3.57,0,0,0-4.91,1.13L70.08,45a20.89,20.89,0,0,0-1.57-8.53l5.21-2.91a3.58,3.58,0,0,0,2.22.29,17,17,0,0,0-5-3.34l-4.31,2.4A20.26,20.26,0,0,0,63.32,29a17.28,17.28,0,0,0-4.26,33.84c.48-.26.95-.53,1.42-.83l2,1.46a15.11,15.11,0,0,0,1.51.08h.22a16.84,16.84,0,0,0,4.3-.6l-4.73-3.52a20.24,20.24,0,0,0,3.18-3.95A20.93,20.93,0,0,0,69.59,49l6.4.22a3.46,3.46,0,0,0,1,.89,3.56,3.56,0,0,0,3.84,0,17.72,17.72,0,0,0,.39-2.82A16.74,16.74,0,0,0,81.11,44.33Z"></path><path class="cls-2" d="M69.9,24.56A22.53,22.53,0,1,0,85.67,52.25,22.53,22.53,0,0,0,69.9,24.56Zm.49,40.12A19.49,19.49,0,1,1,82.66,40.86a19.54,19.54,0,0,1,.08,10.58A19.46,19.46,0,0,1,70.39,64.68Z"></path><path class="cls-2" d="M76.86,65.74l-2.78,1.58a1,1,0,0,0,1,1.76l2.78-1.58a1,1,0,0,0,.38-1.38A1,1,0,0,0,76.86,65.74Z"></path></g></svg>