<svg xmlns="http://www.w3.org/2000/svg" id="Layer_1" data-name="Layer 1" width="96" height="96" viewBox="0 0 96 96"><defs><style>
      .cls-1 {
        fill: #478ccb;
      }

      .cls-1, .cls-2 {
        fill-rule: evenodd;
      }

      .cls-2 {
        fill: #1d1d1b;
      }
    </style></defs><g><path class="cls-1" d="M48.61,45.31a4,4,0,1,1-4,4,4,4,0,0,1,4-4Z"></path><path class="cls-2" d="M58.84,28.4l3.44-6.12a4,4,0,1,1,3,1.38,3.85,3.85,0,0,1-.69-.06l-3.44,6.12a23.79,23.79,0,0,1,3.23,2.5L77.07,20a4,4,0,0,1-.37-1.68,4,4,0,1,1,4,4,4.09,4.09,0,0,1-1.81-.43L66.28,34.15A23.21,23.21,0,0,1,71.88,48h8.27a4,4,0,1,1,0,2.7H71.88a23.16,23.16,0,0,1-5.7,14l6.41,6.27A5.39,5.39,0,1,1,70,75.54a5.36,5.36,0,0,1,.72-2.69L64.3,66.58a23.2,23.2,0,0,1-10.37,5.47l.22,1.22a3,3,0,1,1-2.65.47l-.22-1.23a23.57,23.57,0,0,1-8.63-.62l-2.81,8.59a4,4,0,1,1-2.55-.83l2.81-8.6a23.32,23.32,0,0,1-8-5.22,23.08,23.08,0,0,1-2.59-3.08l-11,6.83a5.41,5.41,0,1,1-1.42-2.28l11-6.83A23.15,23.15,0,0,1,25.3,49.35a22.72,22.72,0,0,1,.18-2.88L22.87,46a4,4,0,1,1,.48-2.64l2.61.48a23.22,23.22,0,0,1,4.64-9.28L27.51,31.7a3.23,3.23,0,0,1-1.08.2,3.06,3.06,0,1,1,2.9-2.18l3.1,2.86a23.22,23.22,0,0,1,10.39-5.81L41.31,19a5.37,5.37,0,1,1,2.63-.55l1.52,7.76A23.44,23.44,0,0,1,58.84,28.4ZM48.61,39.92a9.43,9.43,0,1,1-9.43,9.43,9.43,9.43,0,0,1,9.43-9.43Z"></path></g></svg>