<svg xmlns="http://www.w3.org/2000/svg" id="Layer_1" data-name="Layer 1" width="96" height="96" viewBox="0 0 96 96"><defs><style>
      .cls-1 {
        fill: #478ccb;
      }

      .cls-2 {
        fill: #1d1d1b;
        fill-rule: evenodd;
      }
    </style></defs><g><path class="cls-1" d="M42.83,68.53l.57-.25.14,4c-5.06,2.09-10.68,2.51-14.92-1.73C20.54,62.5,27.6,47.3,42,52.15a25.23,25.23,0,0,0,8.58,1.77A19.57,19.57,0,0,0,68.26,42.43a37.11,37.11,0,0,0,6.31-3.28,24.45,24.45,0,0,1-24,18.52,28.41,28.41,0,0,1-9.77-2c-8.69-3-13.46,6.34-8.24,11.82,2.4,2.51,6.48,2.72,10.24,1Zm9-60.36c-8.4-.85-16.07,1.46-18.36,8.14a5.09,5.09,0,0,0,1,5.18,8.7,8.7,0,0,0,6.05-.26c2.6-1,5.73-3.8,9.36-5.1s6.45-.61,9.66,1a18.92,18.92,0,0,1,9.68,11.43H75A25,25,0,0,0,51.79,8.17ZM36.9,16.77c-.09-2,1-2.76,2.64-3,0,2.09-.72,2.84-2.64,3ZM52.62,67.85c7.69,3.34,6.76,15.58-4.16,15.58-5.2,0-6-3.31-9.39-3.37-2,0-2.92.82-3.23.36s1.14-1.63,3.06-2c4.59-.84,5.89,2.15,9.43,2.15,5,0,6-4.78,4.11-7.68l.18-5.06Z"></path><path class="cls-2" d="M49.76,77.82l.63-17.65a25.29,25.29,0,0,1-4.79-.51l.63,17.84h0a4.69,4.69,0,0,0,2.1.58,3.38,3.38,0,0,0,1.43-.27Zm-9.27,5.23a14.42,14.42,0,0,0-7.41,4.71.16.16,0,0,0,0,.16.16.16,0,0,0,.14.08H62.8a.16.16,0,0,0,.14-.08.16.16,0,0,0,0-.16,13.8,13.8,0,0,0-6.48-4.4,12.69,12.69,0,0,1-8,2.57A11.27,11.27,0,0,1,43,84.61c-.86-.46-1.65-1.08-2.48-1.56Zm38.7-51.48C74.3,38.19,63.63,43,51,43.61l-.27,7.81h-.1a18.58,18.58,0,0,1-5.33-.85l-.24-7c-12.66-.65-23.33-5.42-28.22-12a.33.33,0,0,1,0-.33.31.31,0,0,1,.28-.17H78.94a.31.31,0,0,1,.28.17.33.33,0,0,1,0,.33Z"></path></g></svg>