<svg xmlns="http://www.w3.org/2000/svg" id="Layer_1" data-name="Layer 1" width="96" height="96" viewBox="0 0 96 96"><defs><style>
      .cls-1 {
        fill: #478ccb;
        fill-rule: evenodd;
      }

      .cls-2 {
        fill: #1d1d1b;
      }
    </style></defs><g><path class="cls-1" d="M42.32,38.52c8.7-4.89,24.27,11,12.62,19-13,9-24.6-12.32-12.62-19Z"></path><path class="cls-1" d="M52,26.08c-.36,4.41-13.35,2.61-12.92-2.68.49-6.09,13.37-2.78,12.92,2.68Z"></path><path class="cls-1" d="M25.39,65.14c2.37-2.28,10.94,5.35,8.63,7.57-2.65,2.55-10.78-5.5-8.63-7.57Z"></path><path class="cls-1" d="M69.37,68.44c1.22,1.76-.8,5-4.58,7.86s-6.5,3.94-7.72,2.18.27-4.75,4-7.57,7-4.23,8.25-2.47Z"></path><path class="cls-1" d="M21.18,39.05c3.39.52,2,10.42-1.3,10.05-5.33-.6-3.43-10.77,1.3-10.05Z"></path><path class="cls-2" d="M53.77,11.07c1.89.95,3.77,2,5.61,3.16,9.83,6.12,18.95,15,24.45,24.55,5.65,9.86,7.55,20.58,2.7,30.19-.36.73-.76,1.43-1.19,2.12-4,6.43-10.54,11.24-18.1,14a45.5,45.5,0,0,1-24.68,2C31.38,84.85,20.49,76.44,13.73,66.47A43,43,0,0,1,7.86,54.21,26.24,26.24,0,0,1,7.14,41.8,20.14,20.14,0,0,1,16,28.92c1.63-1.11,2.89-1.87,4-2.52,3.72-2.27,4.83-2.95,7.23-10a10.61,10.61,0,0,1,.54-1.26c1.51-3,4.6-5.33,8.62-6.42a23.38,23.38,0,0,1,13.51.73,29.22,29.22,0,0,1,4,1.66ZM46.1,62.29h.1a1.38,1.38,0,0,1,.29.08,11.73,11.73,0,0,0,1.71.21,8,8,0,0,0,1.8-.1,1.31,1.31,0,1,1,.46,2.57,10.83,10.83,0,0,1-2.37.15l-1-.08-.29,2.13c.44,0,.87.06,1.31.07,2.85.06,5.59-.39,7.16-1.38a1.31,1.31,0,1,1,1.4,2.21c-2,1.27-5.29,1.86-8.61,1.78a24.17,24.17,0,0,1-2.82-.22h-.1l-.1,0a17.15,17.15,0,0,1-6-1.87,1.31,1.31,0,0,1,1.31-2.27,13.08,13.08,0,0,0,3.85,1.35l.31-2.31a19.46,19.46,0,0,1-6.3-3.23,16.49,16.49,0,0,1-6-8.66l-2.67.08a18.23,18.23,0,0,0,.77,2.37,1.31,1.31,0,1,1-2.43,1,22.64,22.64,0,0,1-.08-16.06A20.1,20.1,0,0,1,38.15,28.73a1.31,1.31,0,0,1,1.12,2.37,17.47,17.47,0,0,0-9,9.88,20.59,20.59,0,0,0-1.16,9.2l2.67-.08a14.5,14.5,0,0,1,0-1.87,1.31,1.31,0,1,1,2.61.11,12.48,12.48,0,0,0,.17,2.7,13.56,13.56,0,0,0,5.31,8.24,16.61,16.61,0,0,0,6.25,3ZM44.73,73.57a2.62,2.62,0,1,1-2.63,2.62,2.62,2.62,0,0,1,2.63-2.62ZM61.58,40.22a1.31,1.31,0,0,1-2.16,1.48c-.08-.12-.18-.25-.29-.39a22.63,22.63,0,0,0-7.9-5.71c-3.49-1.5-7.54-2-11,.38a8.31,8.31,0,0,0-.69.52,1.31,1.31,0,0,1-1.84-.2,1.3,1.3,0,0,1,.2-1.84,10.07,10.07,0,0,1,.86-.64c4.41-3,9.34-2.43,13.54-.63A25.13,25.13,0,0,1,57,35.87l2-1.81c-.31-.18-.64-.34-1-.5a1.31,1.31,0,0,1,1.1-2.37,17,17,0,0,1,6,4.72A19.6,19.6,0,0,1,68.72,43a1.31,1.31,0,1,1-2.52.71,17.09,17.09,0,0,0-3.12-6.16,14.82,14.82,0,0,0-1.92-2L59,37.51a18.39,18.39,0,0,1,2.13,2.16c.16.2.3.38.41.55Zm1.67,24.56a1.31,1.31,0,1,1-1.8-1.9A16.71,16.71,0,0,0,65,58L62.75,56.7a17.6,17.6,0,0,1-2.07,3.12,1.31,1.31,0,0,1-2-1.67A14.69,14.69,0,0,0,61,54.35v0c.09-.22.18-.45.26-.67a17.08,17.08,0,0,0,.92-5.34A1.31,1.31,0,0,1,63.47,47a1.29,1.29,0,0,1,1.28,1.32,19.46,19.46,0,0,1-1,5.91L66,55.56a21.07,21.07,0,0,0,.93-7.82,1.31,1.31,0,0,1,2.62-.17,23.53,23.53,0,0,1-1.31,9.52,19.82,19.82,0,0,1-5,7.69Zm-6-47.22q-2.64-1.63-5.3-3a25.69,25.69,0,0,0-3.44-1.44,19.43,19.43,0,0,0-11.23-.65c-2.93.79-5.13,2.38-6.14,4.39a6.26,6.26,0,0,0-.32.75C28,26.06,26.62,26.91,22,29.75c-1.08.67-2.37,1.45-3.8,2.42A16.27,16.27,0,0,0,11,42.58a22.49,22.49,0,0,0,.66,10.57A39.21,39.21,0,0,0,17,64.27c6.24,9.2,16.21,17,26.37,19a41.58,41.58,0,0,0,22.53-1.82C72.64,79,78.48,74.68,82,69c.38-.6.71-1.21,1-1.8,4.18-8.28,2.43-17.7-2.6-26.48-5.18-9-13.8-17.36-23.12-23.17Z"></path><path class="cls-1" d="M77.26,56.06c-2.72.71-4.38-7.45-1.12-8.31,3.75-1,4.49,7.42,1.12,8.31Z"></path></g></svg>