<svg xmlns="http://www.w3.org/2000/svg" id="Layer_1" data-name="Layer 1" width="96" height="96" viewBox="0 0 96 96"><defs><style>
      .cls-1 {
        fill: #fff;
      }

      .cls-2, .cls-4 {
        fill: #478ccb;
      }

      .cls-2, .cls-3 {
        fill-rule: evenodd;
      }

      .cls-3 {
        fill: #11121a;
      }
    </style></defs><g><polygon points="44.63 89.73 44.61 89.73 44.62 89.74 44.63 89.73"></polygon><path d="M44.62,89.74l0,0v0Z"></path><path class="cls-1" d="M44.77,89.89v0l0,0Z"></path><polygon class="cls-1" points="44.77 89.85 44.77 89.86 44.78 89.85 44.77 89.85"></polygon><polygon class="cls-1" points="44.73 89.9 44.74 89.89 44.73 89.89 44.73 89.9"></polygon><path class="cls-2" d="M48.81,71.05c0-.09-.08-.18-.11-.27l-.12,0a3.31,3.31,0,0,0-.12,1.71c0,.15.18.38.3.4a.6.6,0,0,0,.49-.22.61.61,0,0,0,0-.57A2.27,2.27,0,0,1,48.81,71.05Z"></path><path class="cls-2" d="M47.13,72.25a.45.45,0,0,0,.27.62.59.59,0,0,0,.52-.1,2.42,2.42,0,0,0-.1-2C47.59,71.28,47.33,71.75,47.13,72.25Z"></path><path class="cls-2" d="M47.76,68.88c0-.91-.36-1.4-1.14-1.54a6.37,6.37,0,0,1-.95-.26,1.24,1.24,0,0,0-1.58.62,3.07,3.07,0,0,0-.25,2,1,1,0,0,0,1.06.84,3.74,3.74,0,0,0,.67-.1,6.88,6.88,0,0,1,.77-.13A1.32,1.32,0,0,0,47.76,68.88Z"></path><path class="cls-2" d="M50.93,70.45a3.5,3.5,0,0,0,1,0c.54-.11.74-.53.75-1.36,0-.17,0-.34-.05-.51a4.71,4.71,0,0,0-.2-.76,1.25,1.25,0,0,0-1.68-.75,3.56,3.56,0,0,1-.79.22c-.94.13-1.33.67-1.27,1.79a1.37,1.37,0,0,0,1.41,1.2C50.39,70.32,50.66,70.42,50.93,70.45Z"></path><path class="cls-3" d="M79.07,67.15l-14-22.57a4.2,4.2,0,0,1-.61-2.18v-10a4.14,4.14,0,0,0,0-8.27H31.54a4.14,4.14,0,0,0,0,8.27v10a4.15,4.15,0,0,1-.62,2.19l-14,22.56a12.4,12.4,0,0,0,10.48,19H68.58A12.41,12.41,0,0,0,79.07,67.15Zm-42.21-.73c.59-.18.75-.51.53-1.07-.09-.23,0-.41.17-.49a3.11,3.11,0,0,1,1.72-.36.89.89,0,0,1,.78.63,2.4,2.4,0,0,0,1.29,1.62.33.33,0,0,1,.18.26c.06.7.09,1.39.13,2.14l-1.14-.5a3.54,3.54,0,0,0-2.18-.18,1.72,1.72,0,0,1-1.91-1.32A.57.57,0,0,1,36.86,66.42Zm5.19,8.8a4.83,4.83,0,0,0-2.45,2,1.62,1.62,0,0,1-2.13.53.56.56,0,0,1-.29-.82c.22-.57.07-.87-.5-1.11-.12,0-.28-.31-.24-.4a9.57,9.57,0,0,1,.8-1.52.76.76,0,0,1,1-.24,2.94,2.94,0,0,0,2.73-.2c.57-.29,1.18-.53,1.8-.81a2.49,2.49,0,0,0,1.43,1.5C43.42,74.55,42.75,74.92,42.05,75.22Zm7.51.83-.51.06a5,5,0,0,0,0-.56c0-.07-.09-.13-.15-.19s-.17.11-.18.19a3.16,3.16,0,0,0,0,.54h-.52c0-.23,0-.45,0-.7h-.4v.71l-.55,0c0-.25,0-.47.08-.72H46.9c0,.22,0,.43,0,.64-.38.15-.57,0-.65-.36s-.2-.66-.26-1a1.09,1.09,0,0,0-.71-.84l-.44-.18a2.46,2.46,0,0,1-1.6-2.51,1.39,1.39,0,0,0-.15-.79,5.65,5.65,0,0,1-.75-3,4.83,4.83,0,0,1,1.85-4.23,13.89,13.89,0,0,1,2-1.37,4.53,4.53,0,0,1,4.62.09,14.08,14.08,0,0,1,2.28,1.7,4.2,4.2,0,0,1,1.36,2.88,6.1,6.1,0,0,1-.73,3.94,1.23,1.23,0,0,0-.14.68,3.23,3.23,0,0,1-.6,2,.83.83,0,0,1-.26.23,2.59,2.59,0,0,1-.6.3,1.79,1.79,0,0,0-1.45,1.67,3.2,3.2,0,0,1-.1.42c-.06.31-.2.49-.57.35-.09-.26.16-.74-.49-.65C49.52,75.57,49.54,75.79,49.56,76.05Zm2,.38a8.77,8.77,0,0,0-.28,1.15A1.76,1.76,0,0,1,50,79.12a12.09,12.09,0,0,1-1.18.32,4.18,4.18,0,0,1-2.65-.66,1.71,1.71,0,0,1-.64-1.08,15.57,15.57,0,0,0-1-3.11c-.06-.12-.09-.24-.14-.36.47-.24.77-.2,1,.23a7.64,7.64,0,0,1,.45,1.5c.08.3.07.63.14.94a.64.64,0,0,0,.65.54v-.59H47c.16.21-.24.68.37.72l0-.64h.42c.25.22-.23.69.34.84v-.92h.52c0,.27,0,.54-.07.84H49V77l.49,0v.63c.53-.06.23-.48.38-.71h.46v.57a.69.69,0,0,0,.58-.66c.07-.44.08-.9.17-1.33a3.72,3.72,0,0,1,.39-1c.24-.39.49-.43,1-.22C52.16,75,51.86,75.69,51.6,76.43ZM60,75.89a.69.69,0,0,0-.5.89c.23.76-.1,1.23-.9,1.2a1.59,1.59,0,0,1-1.48-.77A4.45,4.45,0,0,0,54.9,75.3c-.75-.33-1.47-.72-2.3-1.13A2.47,2.47,0,0,0,54,72.69l1.67.73,1.13.47a1.86,1.86,0,0,0,1.43-.12c.75-.3,1.24-.14,1.7.74a6.07,6.07,0,0,1,.35.83C60.43,75.63,60.35,75.81,60,75.89Zm0-8a1.75,1.75,0,0,1-1.6.61,3.81,3.81,0,0,0-2.61.39c-.22.12-.48.19-.71.29,0-.74.07-1.43.12-2.13a.41.41,0,0,1,.21-.27,2.39,2.39,0,0,0,1.21-1.45,1,1,0,0,1,1.26-.8,6.21,6.21,0,0,1,1.26.35c.28.1.3.31.18.58a.69.69,0,0,0,.4,1A.82.82,0,0,1,60,67.85ZM32.82,57.16l5.09-8.22a12.4,12.4,0,0,0,1.87-6.55v-10H56.25v10a12.38,12.38,0,0,0,1.86,6.54l5.08,8.22Z"></path><path class="cls-4" d="M57.42,15.14a3.49,3.49,0,1,1-3.49-3.57A3.48,3.48,0,0,1,57.42,15.14Z"></path><path class="cls-4" d="M47.43,11.48a2.69,2.69,0,1,1,2.74-2.66A2.71,2.71,0,0,1,47.43,11.48Z"></path><path class="cls-4" d="M45.84,16.69a2,2,0,0,1,2,2,2.05,2.05,0,0,1-2,2,2,2,0,0,1-2-2A2,2,0,0,1,45.84,16.69Z"></path></g></svg>