<svg xmlns="http://www.w3.org/2000/svg" id="Layer_1" data-name="Layer 1" width="96" height="96" viewBox="0 0 96 96"><defs><style>
      .cls-1 {
        fill: #1d1d1b;
        fill-rule: evenodd;
      }

      .cls-2 {
        fill: #478ccb;
      }
    </style></defs><g><path class="cls-1" d="M36.61,27.31a6.93,6.93,0,0,0,6.93-6.93c0-3.73-5.32-10-6.93-12.38-1.6,2.37-6.93,8.65-6.93,12.38a6.93,6.93,0,0,0,6.93,6.93Z"></path><path class="cls-2" d="M43.54,35.59c-4.39,6.33-19.31,23.46-19.31,33.59A19.07,19.07,0,0,0,43.54,88,19.06,19.06,0,0,0,62.85,69.18C62.85,59.05,47.94,41.92,43.54,35.59Zm0,48.75a15.59,15.59,0,0,1-10.93-4.43,14.92,14.92,0,0,1-4.56-10.73,2.07,2.07,0,1,1,4.14,0A10.83,10.83,0,0,0,35.49,77a11.5,11.5,0,0,0,8,3.24,2.07,2.07,0,0,1,0,4.14Z"></path><path class="cls-1" d="M60.73,41.1a11,11,0,0,1-11-10.89c0-5.86,8.5-15.75,11-19.45,2.54,3.7,11,13.59,11,19.45a11,11,0,0,1-11,10.89Z"></path></g></svg>