<svg xmlns="http://www.w3.org/2000/svg" id="Layer_1" data-name="Layer 1" width="96" height="96" viewBox="0 0 96 96"><defs><style>
      .cls-1 {
        fill: #1d1d1b;
      }

      .cls-2 {
        fill: #478ccb;
      }
    </style></defs><g><path class="cls-1" d="M33.2,31.35c.13-.3.25-.61.35-.92A10.16,10.16,0,0,0,34,25.2a7.13,7.13,0,0,0-2.67-4.29,9.38,9.38,0,0,0-2.79-1.44,10,10,0,0,0-2.4-.5,10.64,10.64,0,0,0-7.82,2.79,19.06,19.06,0,0,0-5.39,8.32,21.68,21.68,0,0,0-1.05,5.11A28.47,28.47,0,0,0,13.5,47a24.16,24.16,0,0,0,4.9,8.34,10.22,10.22,0,0,0,6.4,3.51A7.51,7.51,0,0,0,28,58.38,8.28,8.28,0,0,0,33.09,54a6.29,6.29,0,0,0,.5-2.28,6,6,0,0,0-.34-2.17,5.26,5.26,0,0,0-1.18-1.88,7.18,7.18,0,0,1,1.55-.76,2.85,2.85,0,0,1,2.2,0l.27.18c.2.32.4.65.59,1,0,.08.06.16.08.23a9.67,9.67,0,0,1,.57,3.52,10.28,10.28,0,0,1-.78,3.62,11.93,11.93,0,0,1-7.32,6.52,11.07,11.07,0,0,1-4.72.65,13.86,13.86,0,0,1-8.84-4.69A27.75,27.75,0,0,1,10,48.22,32.4,32.4,0,0,1,8.09,34.9a25.89,25.89,0,0,1,1.24-6,22.77,22.77,0,0,1,6.5-10,14.3,14.3,0,0,1,10.55-3.69,13.61,13.61,0,0,1,3.29.69,13.41,13.41,0,0,1,3.9,2,10.82,10.82,0,0,1,4,6.5,14,14,0,0,1-.52,7.17c-.15.43-.31.85-.49,1.27-1-.47-2-.91-3-1.38l-.36-.16Zm26.19,1.54c-.18-.42-.34-.84-.49-1.27a14,14,0,0,1-.52-7.17,10.82,10.82,0,0,1,4-6.5,13.41,13.41,0,0,1,3.9-2,13.61,13.61,0,0,1,3.29-.69,14.3,14.3,0,0,1,10.55,3.69,22.77,22.77,0,0,1,6.5,10,25.89,25.89,0,0,1,1.24,6A32.4,32.4,0,0,1,86,48.22a27.75,27.75,0,0,1-5.69,9.64,13.86,13.86,0,0,1-8.84,4.69,11.07,11.07,0,0,1-4.72-.65,11.93,11.93,0,0,1-7.32-6.52,10.28,10.28,0,0,1-.78-3.62,9.67,9.67,0,0,1,.57-3.52c0-.07,0-.15.08-.23.19-.34.39-.67.59-1l.27-.18a2.85,2.85,0,0,1,2.2,0,7.18,7.18,0,0,1,1.55.76,5.26,5.26,0,0,0-1.18,1.88,6,6,0,0,0-.34,2.17,6.29,6.29,0,0,0,.5,2.28A8.28,8.28,0,0,0,68,58.38a7.51,7.51,0,0,0,3.17.43,10.22,10.22,0,0,0,6.4-3.51A24.16,24.16,0,0,0,82.5,47a28.47,28.47,0,0,0,1.67-11.77,21.68,21.68,0,0,0-1-5.11,19.06,19.06,0,0,0-5.39-8.32A10.65,10.65,0,0,0,69.91,19a10,10,0,0,0-2.4.5,9.38,9.38,0,0,0-2.79,1.44,7.13,7.13,0,0,0-2.67,4.29,10.16,10.16,0,0,0,.4,5.23c.1.31.22.62.35.92l-.36.16c-1,.47-2,.91-3,1.38Z"></path><path class="cls-2" d="M49.88,56.27c0,4.45,0,20.75,0,24.55h2.5V52.38h0c0-10.91,5.69-13.45,10.95-15.8,3.83-1.7,7.45-3.32,9.15-7.5a1.25,1.25,0,0,0-.69-1.63,1.24,1.24,0,0,0-1.62.69c-1.33,3.26-4.5,4.67-7.85,6.17-.74.33-1.49.66-2.23,1a4.18,4.18,0,0,1-2-.65A2.45,2.45,0,0,1,57,33.33a1.24,1.24,0,0,0-2.42.58,5,5,0,0,0,2.15,2.85l.32.2c-4,2.55-7.2,6.58-7.2,15.42h0Z"></path><path class="cls-2" d="M32.67,36.58c5.26,2.35,10.95,4.89,10.95,15.8h0V80.82h2.5c0-3.78,0-20,0-24.47v-4h0c0-8.84-3.21-12.87-7.2-15.42l.32-.2a5,5,0,0,0,2.15-2.85A1.24,1.24,0,1,0,39,33.33a2.45,2.45,0,0,1-1.1,1.34,4.18,4.18,0,0,1-2,.65c-.74-.35-1.49-.68-2.23-1-3.35-1.5-6.52-2.91-7.85-6.17a1.24,1.24,0,0,0-1.62-.69,1.25,1.25,0,0,0-.69,1.63C25.22,33.26,28.84,34.88,32.67,36.58Z"></path><path class="cls-2" d="M32.81,44.5a5.12,5.12,0,0,1,4.22.15,4.87,4.87,0,0,1,1,.72,12.06,12.06,0,0,1,1.87,7c0,7.36,0-.6,0,8.7V80.82h2.49V52.38c0-4.55-1.38-7.56-3.3-9.68a18.45,18.45,0,0,0-6.26-4.19c-1.05-.48-2.14-.87-3.27-1.28-3.43-1.24-7.18-2.6-10.31-7a1.25,1.25,0,1,0-2,1.43,19.26,19.26,0,0,0,9.53,7.22l-.59.13a19.37,19.37,0,0,0-8,3.72,1.25,1.25,0,0,0,1.66,1.87,16.83,16.83,0,0,1,7-3.16c2.54-.58,5-.68,6.31,0l.67.35a8.75,8.75,0,0,0-1.66.41,13.25,13.25,0,0,0-4.9,3.09,8.93,8.93,0,0,0-1.46,1.87,1.26,1.26,0,0,0,.49,1.7,1.25,1.25,0,0,0,1.69-.49A6.47,6.47,0,0,1,28.88,47,10.62,10.62,0,0,1,32.81,44.5Z"></path><path class="cls-2" d="M78.81,31.62a1.25,1.25,0,1,0-2-1.43c-3.13,4.44-6.88,5.8-10.31,7-1.13.41-2.22.8-3.27,1.28a18.45,18.45,0,0,0-6.26,4.19c-1.92,2.12-3.3,5.13-3.3,9.68V80.82h2.49V61.08c0-9.3,0-1.34,0-8.7a12.06,12.06,0,0,1,1.87-7,4.87,4.87,0,0,1,1-.72,5.12,5.12,0,0,1,4.22-.15A10.62,10.62,0,0,1,67.12,47a6.47,6.47,0,0,1,1,1.32,1.25,1.25,0,0,0,1.69.49,1.26,1.26,0,0,0,.49-1.7,8.93,8.93,0,0,0-1.46-1.87A13.25,13.25,0,0,0,64,42.13a8.75,8.75,0,0,0-1.66-.41l.67-.35c1.32-.65,3.77-.55,6.31,0a16.83,16.83,0,0,1,7,3.16,1.25,1.25,0,0,0,1.66-1.87,19.37,19.37,0,0,0-8-3.72l-.59-.13A19.26,19.26,0,0,0,78.81,31.62Z"></path></g></svg>