<svg xmlns="http://www.w3.org/2000/svg" id="Layer_1" data-name="Layer 1" width="96" height="96" viewBox="0 0 96 96"><defs><style>
      .cls-1 {
        fill: #478ccb;
      }

      .cls-2 {
        fill: #1d1d1b;
      }
    </style></defs><g><path class="cls-1" d="M50.83,17.82c0,.38,0,.68,0,.85-.41,7.38-3.87,11.8-8.32,15.17-1.44-.9-2.92-1.73-4.4-2.56l-1-.57c3.68-2.44,6.78-5.41,7.77-10H29.72a1.42,1.42,0,1,1,0-2.83H45.18c0-.39,0-.87,0-1.31h0c0-.29,0-.57,0-.8a24,24,0,0,1,5.6,2.08ZM31.27,40.68a22.4,22.4,0,0,0-5.44,4.4H38.18a1.42,1.42,0,1,1,0,2.83H24.08a11.47,11.47,0,0,0,0,8.49H38.42a1.42,1.42,0,1,1,0,2.83H25.73c.25.3.51.59.79.88a24.5,24.5,0,0,1-8.85-9.84c.58-6.13,3.92-9.84,8.2-12.82,1,.68,2.1,1.33,3.18,2,.73.43,1.47.85,2.22,1.27ZM45.55,73.27C48.85,76.69,51,81.2,50.82,88l-5.64-.18a14.7,14.7,0,0,0-1.36-7H30.39a1.42,1.42,0,1,1,0-2.83H42a22.5,22.5,0,0,0-5-4.28c.83.06,1.68.09,2.53.09a34.72,34.72,0,0,0,6-.52Z"></path><path class="cls-2" d="M23.66,21a13.45,13.45,0,0,0,.89,2.55H37.9a1.42,1.42,0,0,1,0,2.83H26.34c2.53,3.12,6.27,5.23,9.94,7.3,7.4,4.17,14.57,8.22,14.57,18.57A15.87,15.87,0,0,1,47.4,62.6a24.17,24.17,0,0,1-7.83,1.29q-1.23,0-2.43-.12c4.07-2.52,7.44-5.42,8-10.2H30a1.42,1.42,0,1,1,0-2.83H45.1c-.75-6.07-6.08-9.08-11.58-12.18-5.67-3.2-11.47-6.47-14.24-12.65A24.55,24.55,0,0,1,23.66,21ZM65.58,72.5a5,5,0,0,1,7-7L86.46,79.38a4.95,4.95,0,0,1-7,7L65.58,72.5ZM64.15,60.92h0a1.42,1.42,0,1,1,2,2L63,66.07a1.41,1.41,0,0,1-2-2l3.15-3.15ZM39.57,12.24A27.24,27.24,0,1,0,66.8,39.48,27.24,27.24,0,0,0,39.57,12.24Zm0-4.24A31.48,31.48,0,1,1,8.09,39.48,31.48,31.48,0,0,1,39.57,8ZM32.41,73c-4,2.48-7.48,5.45-8.71,10.24H38a1.42,1.42,0,1,1,0,2.83H23.27a16.13,16.13,0,0,0,0,1.71L17.61,88c-.29-8.54,3.26-13.48,8-17.16A34.11,34.11,0,0,0,32.41,73Z"></path></g></svg>