<svg xmlns="http://www.w3.org/2000/svg" id="Layer_1" data-name="Layer 1" width="96" height="96" viewBox="0 0 96 96"><defs><style>
      .cls-1 {
        fill: #1d1d1b;
      }

      .cls-1, .cls-2 {
        fill-rule: evenodd;
      }

      .cls-2 {
        fill: #478ccb;
      }
    </style></defs><g><path class="cls-1" d="M67.29,67.77H58.56c.61,5.11,8.11,5.11,8.73,0ZM65.88,84.28a1.86,1.86,0,0,1,0,3.72H25.36a1.86,1.86,0,0,1,0-3.72h8a49.43,49.43,0,0,1-9-10.1,8.12,8.12,0,0,1-5.48-13.52c-1.5-8.58.79-17.57,8.9-26.34,2.59-2.8,6,1.18,4.11,3.21-6.53,7.07-8.27,13.95-7,20.45a8.13,8.13,0,0,1,6.54,12.88c6.6,7.62,15.89,12.13,24.62.76a8.07,8.07,0,0,1-1.26-3.85H48.46a1.86,1.86,0,0,1,0-3.71H77.38a1.86,1.86,0,0,1,0,3.71H71c-.42,6.41-6.73,7.47-6.74,7.47l-7.25,9Zm-41-13.79c5.79,0,5.8-8.8,0-8.8s-5.79,8.8,0,8.8Z"></path><path class="cls-2" d="M52.47,37.3l-7.83,4.53,3.07,5.31,7.83-4.52L52.47,37.3Zm-9.31,2L51,34.74,41.43,18.19,33.6,22.71l2,3.46a4.81,4.81,0,0,1,4.59,7.94l3,5.15Zm3,12.19c-1.47.84-3.61-1.34-1-2.83l-3.07-5.31c-2.36,1.36-3.84-1.2-1.48-2.57l-3-5.17a4.81,4.81,0,0,1-4.56-7.9L30.3,22.91a1.47,1.47,0,0,1,.54-2l10.4-6a1.49,1.49,0,0,1,2,.55L53.55,33.26c2.37-1.36,3.85,1.2,1.48,2.57l3.07,5.31c2.59-1.49,3.4,1.46,1.93,2.31l-1.73,1h0l-12.13,7ZM36.65,32.7a1.84,1.84,0,0,0,0-3.68,1.84,1.84,0,0,0,0,3.68ZM54,49l6.14-3.55a5.63,5.63,0,0,1,.74,2.43c1.57.52,3.89.86,3.3,2.65s-2.51.74-3.81.31a7.56,7.56,0,0,1-2,2.73c.56,1,1.81,2.56.28,3.45s-2.29-1-2.85-2a7.49,7.49,0,0,1-3.38.39c-.28,1.34-.38,3.52-2.17,3.14s-1-2.56-.64-4.17a5.74,5.74,0,0,1-1.74-1.86L54,49ZM29,12.55,35.4,8.87a1.5,1.5,0,0,1,1.11-.15l.86-.5a1.48,1.48,0,0,1,1.48,2.56l-1.54.89-.45,2a1.49,1.49,0,0,1-.73,1L33.55,16.1a1.48,1.48,0,0,1-1.21.13l-1.91-.59-2,1.13A1.48,1.48,0,0,1,27,14.21l1.28-.74v0a1.45,1.45,0,0,1,.74-.88Z"></path></g></svg>