<?xml version="1.0" encoding="utf-8"?>
<!-- Generator: Adobe Illustrator 27.0.0, SVG Export Plug-In . SVG Version: 6.00 Build 0)  -->
<svg version="1.1" id="Layer_1" xmlns="http://www.w3.org/2000/svg" xmlns:xlink="http://www.w3.org/1999/xlink" x="0px" y="0px"
	 viewBox="0 0 95.8 95.8" style="enable-background:new 0 0 95.8 95.8;" xml:space="preserve">
<style type="text/css">
	.st0{fill:none;stroke:#FFFFFF;stroke-miterlimit:10;}
	.st1{fill:none;stroke:#478CCB;stroke-miterlimit:10;}
</style>
<path class="st0" d="M60,25.8l12.4-12.4l-6-6c-0.8-0.8-0.8-2.1,0-2.9C66.9,4.2,67.4,4,67.9,4h19.9c1.1,0,2,0.9,2,2v19.8
	c0,1.1-0.9,2-2,2c-0.6,0-1.2-0.3-1.5-0.7l-6-5.9L67.9,33.7c1.9,3.5,2.7,7.5,2.3,11.3c-0.4,4.4-2.3,8.6-5.6,11.9l0,0
	c-3.8,3.8-8.8,5.7-13.8,5.7c-3.3,0-6.5-0.8-9.4-2.4c1.3-0.8,2.6-1.7,3.8-2.7c1.8,0.7,3.7,1.1,5.7,1.1c4,0,7.9-1.5,10.9-4.5l0,0
	c2.6-2.6,4.1-5.9,4.4-9.4c0.3-3.4-0.4-6.9-2.4-10c-0.6-0.8-0.5-1.9,0.2-2.7l15-15l0,0c0.8-0.8,2.1-0.8,2.9,0l4.1,4V8.1h-13l3.9,3.9
	l0,0c0.8,0.8,0.8,2.1,0,2.9L61.8,29.8c-0.7,0.7-1.8,0.9-2.6,0.3c-3.1-2-6.6-2.8-10.1-2.5c-3.4,0.3-6.8,1.9-9.4,4.4l0,0
	c-3,3-4.5,7-4.5,10.9c0,0.2,0,0.5,0,0.7c-0.3,0.5-0.6,0.9-1,1.3c-0.8,0.8-1.7,1.3-2.8,1.6c-0.2-1.2-0.3-2.4-0.3-3.6
	c0-5,1.9-10,5.7-13.8l0,0c3.3-3.3,7.5-5.2,11.9-5.6C52.6,23.2,56.5,23.9,60,25.8L60,25.8L60,25.8z M33.2,91.4h-6.8c-1.1,0-2-0.9-2-2
	v-8.5h-8.5c-1.1,0-2-0.9-2-2c0-0.1,0-0.1,0-0.2v-7c0-1.1,0.9-2,2-2l0,0h8.5V59c-3.9-1.1-7.2-3.4-9.7-6.4c-2.8-3.4-4.5-7.8-4.5-12.4
	c0-5.4,2.2-10.3,5.7-13.9c3.5-3.5,8.4-5.7,13.9-5.7c3.5,0,6.7,0.9,9.5,2.5c-1.3,0.8-2.6,1.7-3.8,2.7c-1.8-0.7-3.7-1.1-5.7-1.1
	c-4.3,0-8.1,1.7-11,4.5s-4.5,6.7-4.5,11c0,3.7,1.3,7.1,3.5,9.8c2.2,2.7,5.3,4.6,8.8,5.4c1,0.1,1.8,1,1.8,2v14.1c0,1.1-0.9,2-2,2
	h-8.5v3.1h8.5c1.1,0,2,0.9,2,2v8.5h2.7v-8.5c0-1.1,0.9-2,2-2h8.5v-3.1h-8.5c-1.1,0-2-0.9-2-2V57.5c0-1,0.6-1.9,1.6-2.1
	c3.6-0.7,6.7-2.7,8.9-5.4c2.2-2.7,3.5-6.1,3.5-9.8c0-0.2,0-0.5,0-0.7c0.2-0.4,0.5-0.8,0.9-1.1c0.8-0.8,1.8-1.4,2.9-1.7
	c0.2,1.1,0.3,2.3,0.3,3.5c0,4.6-1.7,9-4.4,12.4c-2.5,3-5.8,5.3-9.7,6.4v10.5h8.5c1.1,0,2,0.9,2,2c0,0.1,0,0.1,0,0.2v7
	c0,1.1-0.9,2-2,2l0,0h-8.5v8.5C35.2,90.4,34.3,91.4,33.2,91.4L33.2,91.4L33.2,91.4z"/>
<path class="st1" d="M23.3,33.9c-1.7,1.7-2.7,4-2.7,6.5s1,4.8,2.7,6.5c1.7,1.7,4,2.7,6.5,2.7s4.8-1,6.5-2.7c1-1,1.7-2.1,2.2-3.4
	c0.6-1.6,0.5-3,1.1-4.6c0.6-1.6,1.5-3,2.8-4.3c2.3-2.3,5.4-3.5,8.4-3.5s6.1,1.2,8.4,3.5c2.3,2.3,3.5,5.4,3.5,8.4
	c0,3.1-1.2,6.1-3.5,8.4c-2.3,2.3-5.4,3.5-8.4,3.5c-1,0-2-0.1-3-0.4c0.6-0.8,1.2-1.6,1.7-2.4c0.4,0.1,0.9,0.1,1.3,0.1
	c2.4,0,4.7-0.9,6.5-2.7c1.8-1.8,2.7-4.2,2.7-6.5c0-2.4-0.9-4.7-2.7-6.5c-1.8-1.8-4.2-2.7-6.5-2.7c-2.4,0-4.7,0.9-6.5,2.7
	c-0.8,0.8-1.4,1.7-1.9,2.7c-0.9,1.9-0.7,3.7-1.5,5.7c-0.6,1.5-1.5,2.8-2.6,4c-2.2,2.2-5.1,3.5-8.4,3.5s-6.3-1.3-8.4-3.5
	c-2.2-2.2-3.5-5.1-3.5-8.4s1.3-6.3,3.5-8.4s5.1-3.5,8.4-3.5c1,0,2,0.1,2.9,0.3c-0.6,0.8-1.2,1.6-1.7,2.5
	C28.2,30.9,25.3,31.9,23.3,33.9L23.3,33.9L23.3,33.9z"/>
</svg>
