<?xml version="1.0" encoding="utf-8"?>
<!-- Generator: Adobe Illustrator 27.0.0, SVG Export Plug-In . SVG Version: 6.00 Build 0)  -->
<svg version="1.1" id="Layer_1" xmlns="http://www.w3.org/2000/svg" xmlns:xlink="http://www.w3.org/1999/xlink" x="0px" y="0px"
	 viewBox="0 0 95.8 95.8" style="enable-background:new 0 0 95.8 95.8;" xml:space="preserve">
<style type="text/css">
	.st0{fill:none;stroke:#478CCB;stroke-miterlimit:10;}
	.st1{fill:none;stroke:#FFFFFF;stroke-miterlimit:10;}
</style>
<path class="st0" d="M52.8,70.3h10.6V59.7H52.8V70.3L52.8,70.3z M30.8,42.8c-0.7-0.8-0.6-1.9,0.2-2.6c0.8-0.7,1.9-0.6,2.6,0.2
	l3.4,3.8l6.4-7.2c0.7-0.8,1.9-0.8,2.6-0.1c0.8,0.7,0.8,1.9,0.1,2.6l-7.9,8.9c-0.8,0.7-1.9,0.6-2.6-0.2L30.8,42.8L30.8,42.8
	L30.8,42.8z M52.8,39.2v10.6h10.6V39.2H52.8z M50.4,51V36.7h15.6v15.6H50.4L50.4,51C50.4,51,50.4,51,50.4,51z M32.3,70.3h10.6V59.7
	H32.3V70.3L32.3,70.3z M44.1,72.8H29.8V57.2h15.6v15.6H44.1z M64.7,72.8H50.4V57.2h15.6v15.6C65.9,72.8,64.7,72.8,64.7,72.8z"/>
<path class="st1" d="M23.3,16.7h8.1v3.7h-8.1c-0.7,0-1.3,0.3-1.8,0.7c-0.4,0.4-0.7,1.1-0.7,1.8v58.5c0,1.4,1.1,2.5,2.5,2.5h49.2
	c1.4,0,2.5-1.1,2.5-2.5V23c0-0.7-0.3-1.3-0.7-1.8c-0.4-0.4-1.1-0.7-1.8-0.7h-8.1v-3.7h8.1c1.7,0,3.3,0.7,4.4,1.8
	c1.1,1.1,1.8,2.7,1.8,4.4v58.5c0,3.4-2.8,6.2-6.2,6.2H23.3c-3.4,0-6.2-2.8-6.2-6.2V23c0-1.7,0.7-3.3,1.8-4.4
	C20,17.4,21.5,16.7,23.3,16.7L23.3,16.7z M47.9,8c1.8,0,3.4,0.1,4.6,1.3c1.2,1.2,1.9,2.8,1.9,4.6h7.5v9.3h-28v-9.4h7.5
	c0-1.8,0.7-3.4,1.9-4.6C44.4,8.1,46.1,8,47.9,8L47.9,8L47.9,8z M49.9,12c-0.5-0.5-1.2-0.8-2-0.8s-1.5,0.3-2,0.8
	c-0.5,0.5-0.8,1.2-0.8,2c0,0.8,0.3,1.5,0.8,2c0.5,0.5,1.1,0.8,1.8,0.8H48c0.7,0,1.4-0.3,1.8-0.8c0.5-0.5,0.8-1.2,0.8-2
	C50.7,13.2,50.4,12.5,49.9,12L49.9,12L49.9,12z"/>
</svg>
