<?xml version="1.0" encoding="utf-8"?>
<!-- Generator: Adobe Illustrator 27.0.0, SVG Export Plug-In . SVG Version: 6.00 Build 0)  -->
<svg version="1.1" id="Layer_1" xmlns="http://www.w3.org/2000/svg" xmlns:xlink="http://www.w3.org/1999/xlink" x="0px" y="0px"
	 viewBox="0 0 95.8 95.8" style="enable-background:new 0 0 95.8 95.8;" xml:space="preserve">
<style type="text/css">
	.st0{fill:none;stroke:#FFFFFF;stroke-miterlimit:10;}
	.st1{fill:none;stroke:#478CCB;stroke-miterlimit:10;}
</style>
<path class="st0" d="M36.8,20l1.9-8.7c1.1-0.4,1.9-1.5,1.9-2.7c0-1.6-1.3-2.9-2.9-2.9c-1.6,0-2.9,1.3-2.9,2.9c0,0.8,0.3,1.5,0.8,2
	l-1.9,8.7c-0.8-0.1-1.6-0.2-2.4-0.2c-2.6,0-5,0.6-7.2,1.6l-2.3-4.2c0.2-0.4,0.3-0.9,0.3-1.4c0-1.6-1.3-2.9-2.9-2.9
	c-1.6,0-2.9,1.3-2.9,2.9c0,1.5,1.1,2.8,2.6,2.9l2.4,4.3c-1.9,1.4-3.6,3.2-4.8,5.3l-4.1-2.4c0-1.6-1.3-2.9-2.9-2.9s-2.9,1.3-2.9,2.9
	c0,1.6,1.3,2.9,2.9,2.9c0.4,0,0.7-0.1,1.1-0.2l4.6,2.6c-0.6,1.8-1,3.7-1,5.7c0,1.4,0.2,2.8,0.5,4.1l-7.6,0.6c-0.5-0.6-1.3-1-2.2-1
	c-1.6,0-2.9,1.3-2.9,2.9c0,1.6,1.3,2.9,2.9,2.9c1.1,0,2.1-0.7,2.6-1.6l8.2-0.7c0.6,1.4,1.5,2.6,2.4,3.8l-2.6,1.9
	c-0.3-0.1-0.7-0.2-1.1-0.2c-1.6,0-2.9,1.3-2.9,2.9c0,1.6,1.3,2.9,2.9,2.9s2.9-1.3,2.9-2.9l3.2-2.3c1.7,1.4,3.7,2.4,5.9,3l-1,4.7
	c-1.4,0.3-2.4,1.4-2.4,2.9c0,1.6,1.3,2.9,2.9,2.9c1.6,0,2.9-1.3,2.9-2.9c0-0.5-0.1-1-0.4-1.5l1.2-5.5c0.5,0,1,0.1,1.6,0.1
	c1.4,0,2.9-0.2,4.2-0.5c-1-2.5-1.6-5.2-1.7-8c0-0.9,0-1.9,0-2.8c0-0.2,0-0.5,0.1-0.7c0.1-1.2,0.3-2.3,0.6-3.5
	c0.1-0.3,0.1-0.5,0.2-0.8c0.2-0.9,0.5-1.7,0.8-2.5c1.7-4.3,4.5-8,7.9-10.7C41.4,22.3,39.2,20.9,36.8,20L36.8,20z"/>
<path class="st1" d="M82.1,84.9c1.7-1,2.3-3.1,1.3-4.8l-5.9-10.4l-1-1.7c-0.4-0.7-1-1.2-1.6-1.5c-1-0.4-2.2-0.4-3.2,0.1
	s-1.6,1.6-1.8,2.7c-0.1,0.7,0,1.5,0.4,2.1l1,1.7l5.9,10.4C78.3,85.3,80.4,85.8,82.1,84.9z"/>
<path class="st0" d="M75.8,41.8c-0.1-0.1-0.2-0.2-0.4-0.3c-1.7-1-3.9-0.5-4.9,1.1l-5.7-0.2c0.1-2.9-0.5-5.8-1.6-8.5l5.2-2.9
	c0.7,0.3,1.5,0.4,2.2,0.3c-1.4-1.4-3.1-2.5-5-3.3l-4.3,2.4c-0.9-1.4-2-2.7-3.3-3.9c-7.5,0.3-14,5.4-16,12.7
	c-2.5,9,2.8,18.4,11.7,21.1c0.5-0.3,0.9-0.5,1.4-0.8l2,1.5c0.5,0,1,0.1,1.5,0.1h0.2c1.5,0,2.9-0.2,4.3-0.6l-4.7-3.5
	c1.2-1.2,2.3-2.5,3.2-3.9c1.3-2.1,2.2-4.2,2.7-6.5l6.4,0.2c0.3,0.3,0.6,0.6,1,0.9c1.2,0.8,2.7,0.7,3.8,0c0.2-0.9,0.3-1.9,0.4-2.8
	C75.9,43.8,75.9,42.8,75.8,41.8L75.8,41.8z"/>
<path class="st1" d="M64.7,22.1c-12-3.3-24.3,3.8-27.6,15.7c-3.3,12,3.8,24.3,15.7,27.6c12,3.3,24.3-3.8,27.6-15.7
	C83.7,37.7,76.6,25.4,64.7,22.1z M65.2,62.1c-2,0.7-4,1.1-6.2,1.1c-1.8,0-3.6-0.2-5.4-0.7C43.3,59.7,37.2,49,40,38.6
	C42.8,28.3,53.5,22.2,63.9,25c6.8,1.9,11.7,7.1,13.5,13.3c0.6,2.1,0.9,4.3,0.7,6.5c-0.1,1.3-0.3,2.7-0.7,4
	C75.7,55.3,71,60.1,65.2,62.1L65.2,62.1z"/>
<path class="st1" d="M71.6,63.2l-2.8,1.6c-0.5,0.3-0.6,0.9-0.4,1.4c0.3,0.5,0.9,0.6,1.4,0.4l2.8-1.6c0.5-0.3,0.6-0.9,0.4-1.4
	C72.7,63,72.1,62.9,71.6,63.2L71.6,63.2z"/>
</svg>
