<svg id="Layer_1" data-name="Layer 1" xmlns="http://www.w3.org/2000/svg" viewBox="0 0 96 96"><defs><style>.cls-1{fill:#fff;}.cls-1,.cls-2{fill-rule:evenodd;}.cls-2{fill:#ce1719;}</style></defs><path class="cls-1" d="M48.61,45.31a4,4,0,1,1-4,4A4,4,0,0,1,48.61,45.31Z"/><path class="cls-2" d="M58.84,28.4l3.44-6.12a4,4,0,1,1,5.64.4,3.94,3.94,0,0,1-2.64,1,4,4,0,0,1-.69-.06l-3.44,6.12a23.79,23.79,0,0,1,3.23,2.5L77.07,20a4.07,4.07,0,0,1-.37-1.68,4,4,0,1,1,4,4,4.05,4.05,0,0,1-1.81-.43L66.28,34.15A23.21,23.21,0,0,1,71.88,48h8.27a4,4,0,1,1,0,2.7H71.88a23.18,23.18,0,0,1-5.7,14L72.59,71a5.27,5.27,0,1,1-1.87,1.88L64.3,66.58a23.24,23.24,0,0,1-10.37,5.47l.22,1.22a3,3,0,1,1-2.65.47l-.22-1.23a23.46,23.46,0,0,1-8.63-.62l-2.81,8.59a4,4,0,1,1-2.55-.83l2.81-8.6a23.38,23.38,0,0,1-8-5.22,23.08,23.08,0,0,1-2.59-3.08l-11,6.83a5.41,5.41,0,1,1-1.42-2.28l11-6.83a23.47,23.47,0,0,1-2.61-14L22.87,46a4,4,0,1,1,.48-2.64l2.61.48a23.22,23.22,0,0,1,4.64-9.28L27.51,31.7a3.07,3.07,0,1,1,1.95-2.89,3.13,3.13,0,0,1-.13.91l3.1,2.86a23.18,23.18,0,0,1,10.39-5.81L41.31,19a5.36,5.36,0,1,1,2.63-.55l1.52,7.76A23.49,23.49,0,0,1,58.84,28.4ZM48.61,39.92a9.43,9.43,0,1,1-9.43,9.43,9.43,9.43,0,0,1,9.43-9.43Z"/></svg>