<?xml version="1.0" encoding="UTF-8"?>
<svg id="Layer_1" data-name="Layer 1" xmlns="http://www.w3.org/2000/svg" width="1.33in" height="1.33in" viewBox="0 0 96 96">
  <defs>
    <style>
      .cls-1 {
        fill: #478ccb;
      }

      .cls-1, .cls-2 {
        fill-rule: evenodd;
      }

      .cls-2 {
        fill: #fff;
      }
    </style>
  </defs>
  <path class="cls-1" d="M45.32,44.93c2.23,0,4.04,1.81,4.04,4.04s-1.81,4.04-4.04,4.04-4.04-1.81-4.04-4.04,1.81-4.04,4.04-4.04h0Z"/>
  <path class="cls-2" d="M55.54,28.04l3.44-6.11c-.62-.71-1-1.64-1-2.66,0-2.23,1.81-4.04,4.04-4.04s4.04,1.81,4.04,4.04-1.81,4.04-4.04,4.04c-.24,0-.47-.02-.69-.06l-3.44,6.12c1.15,.74,2.23,1.57,3.23,2.5l12.64-12.2c-.23-.51-.37-1.08-.37-1.68,0-2.23,1.81-4.04,4.04-4.04s4.04,1.81,4.04,4.04-1.81,4.04-4.04,4.04c-.65,0-1.26-.15-1.81-.43l-12.64,12.2c3.24,3.76,5.29,8.56,5.59,13.84h8.26c.55-1.57,2.05-2.69,3.81-2.69,2.23,0,4.04,1.81,4.04,4.04s-1.81,4.04-4.04,4.04c-1.76,0-3.25-1.12-3.81-2.69h-8.26c-.3,5.33-2.4,10.18-5.69,13.95l6.4,6.27c.81-.49,1.77-.78,2.79-.78,2.97,0,5.38,2.41,5.38,5.38s-2.41,5.38-5.38,5.38-5.38-2.41-5.38-5.38c0-.98,.26-1.9,.72-2.69l-6.4-6.27c-2.88,2.63-6.43,4.54-10.36,5.46l.21,1.22c1.25,.37,2.17,1.53,2.17,2.9,0,1.67-1.36,3.03-3.03,3.03s-3.03-1.36-3.03-3.03c0-1,.49-1.89,1.24-2.44l-.21-1.23c-.88,.1-1.77,.15-2.67,.15-2.06,0-4.05-.27-5.95-.77l-2.81,8.58c.96,.74,1.58,1.9,1.58,3.2,0,2.23-1.81,4.04-4.04,4.04s-4.04-1.81-4.04-4.04,1.76-3.98,3.94-4.03l2.81-8.58c-3.01-1.18-5.71-2.97-7.96-5.22-.95-.95-1.81-1.98-2.59-3.08l-11,6.82c.16,.51,.24,1.05,.24,1.61,0,2.97-2.41,5.38-5.38,5.38s-5.38-2.41-5.38-5.38,2.41-5.38,5.38-5.38c1.44,0,2.76,.57,3.72,1.5l11-6.82c-1.8-3.3-2.82-7.09-2.82-11.11,0-.97,.06-1.93,.18-2.88l-2.61-.48c-.7,1.21-2,2.03-3.5,2.03-2.23,0-4.04-1.81-4.04-4.04s1.81-4.04,4.04-4.04c2.01,0,3.68,1.48,3.99,3.4l2.61,.48c.84-3.45,2.45-6.61,4.64-9.27l-3.09-2.85c-.34,.13-.7,.2-1.08,.2-1.67,0-3.03-1.36-3.03-3.03s1.36-3.03,3.03-3.03,3.03,1.36,3.03,3.03c0,.3-.04,.58-.12,.85l3.09,2.85c2.86-2.76,6.42-4.79,10.38-5.8l-1.51-7.72c-2.86-.12-5.15-2.48-5.15-5.38s2.41-5.38,5.38-5.38,5.38,2.41,5.38,5.38c0,2.11-1.22,3.94-2.98,4.82l1.52,7.76c1.03-.14,2.08-.21,3.15-.21,3.67,0,7.14,.85,10.22,2.36h0Zm-10.22,11.51c5.2,0,9.42,4.22,9.42,9.42s-4.22,9.42-9.42,9.42-9.42-4.22-9.42-9.42,4.22-9.42,9.42-9.42h0Z"/>
</svg>