<?xml version="1.0" encoding="utf-8"?>
<!-- Generator: Adobe Illustrator 27.0.0, SVG Export Plug-In . SVG Version: 6.00 Build 0)  -->
<svg version="1.1" id="Layer_1" xmlns="http://www.w3.org/2000/svg" xmlns:xlink="http://www.w3.org/1999/xlink" x="0px" y="0px"
	 viewBox="0 0 95.8 95.8" style="enable-background:new 0 0 95.8 95.8;" xml:space="preserve">
<style type="text/css">
	.st0{fill-rule:evenodd;clip-rule:evenodd;fill:none;stroke:#FFFFFF;stroke-miterlimit:10;}
	.st1{fill-rule:evenodd;clip-rule:evenodd;fill:none;stroke:#478CCB;stroke-miterlimit:10;}
</style>
<path class="st0" d="M7.8,71.7h3.9c1.3,4.3,5.4,7.5,10.1,7.5s8.8-3.2,10.1-7.5h5.6c1.3,4.3,5.4,7.5,10.1,7.5s8.8-3.2,10.1-7.5h5.6
	c1.3,4.3,5.4,7.5,10.1,7.5s8.8-3.2,10.1-7.5h3.9v17.4H7.8V71.7C7.8,71.7,7.8,71.7,7.8,71.7z"/>
<path class="st1" d="M7.8,37.4H15V16.2c0-1-0.8-1.8-1.7-1.9c-1.3-0.1-2.3-1.2-2.3-2.5s1.1-2.5,2.5-2.5h16.8c1.4,0,2.5,1.1,2.5,2.5
	s-1,2.4-2.3,2.5c-1,0.1-1.7,0.9-1.7,1.9v21.2h12.1V16.2c0-1-0.8-1.8-1.7-1.9c-1.3-0.1-2.3-1.2-2.3-2.5s1.1-2.5,2.5-2.5h16.8
	c1.4,0,2.5,1.1,2.5,2.5s-1,2.4-2.3,2.5c-1,0.1-1.7,0.9-1.7,1.9v21.2h12.1V16.2c0-1-0.8-1.8-1.7-1.9c-1.3-0.1-2.3-1.2-2.3-2.5
	s1.1-2.5,2.5-2.5h16.8c1.4,0,2.5,1.1,2.5,2.5s-1,2.4-2.3,2.5c-1,0.1-1.7,0.9-1.7,1.9v21.2h7.2v6.2H7.8V37.4L7.8,37.4L7.8,37.4z
	 M18.7,37.4h6.2V16.2c0-1.1,0.3-2.2,0.9-3.1h-8.1c0.6,0.9,0.9,2,0.9,3.1V37.4L18.7,37.4L18.7,37.4z M77.6,13.1h-8.1
	c0.6,0.9,0.9,2,0.9,3.1v11.9h6.2V16.2C76.6,15.1,77,14,77.6,13.1C77.6,13.1,77.6,13.1,77.6,13.1z M51.7,13.1h-8.1
	c0.6,0.9,0.9,2,0.9,3.1v15h6.2v-15C50.8,15.1,51.1,14,51.7,13.1C51.7,13.1,51.7,13.1,51.7,13.1z M80.4,47.4v21.2
	c0,3.8-3.1,6.9-6.9,6.9s-6.9-3.1-6.9-6.9V47.4C66.7,47.4,80.4,47.4,80.4,47.4z M28.7,47.4v21.2c0,3.8-3.1,6.9-6.9,6.9
	S15,72.3,15,68.5V47.4h3.7V53h6.2v-5.6C24.9,47.4,28.7,47.4,28.7,47.4z M54.5,47.4v21.2c0,3.8-3.1,6.9-6.9,6.9
	c-3.8,0-6.9-3.1-6.9-6.9V47.4C40.8,47.4,54.5,47.4,54.5,47.4z"/>
</svg>
